<?xml version="1.0" standalone="no"?>
<!DOCTYPE svg PUBLIC "-//W3C//DTD SVG 1.1//EN" "http://www.w3.org/Graphics/SVG/1.1/DTD/svg11.dtd" >
<svg xmlns="http://www.w3.org/2000/svg">
<metadata></metadata>
<defs>
<font id="winterthurcondensedregular" horiz-adv-x="868" >
<font-face units-per-em="2048" ascent="1638" descent="-410" />
<missing-glyph horiz-adv-x="555" />
<glyph horiz-adv-x="2048" />
<glyph horiz-adv-x="2048" />
<glyph horiz-adv-x="682" />
<glyph horiz-adv-x="768" d="M203 1614q6 -100 35 -168q29 -66 65 -98q39 -37 82 -37t80 37q37 33 67 98q29 68 35 168h-78q-6 -80 -36.5 -145.5t-69.5 -65.5q-41 0 -71.5 63.5t-37.5 147.5h-71z" />
<glyph horiz-adv-x="768" d="M326 1317h118v129h-118v-129z" />
<glyph horiz-adv-x="770" d="M270 1483q0 -72 33 -123q35 -53 82 -53t82 53q33 51 33 123t-33 125q-35 53 -82 53t-82 -53q-33 -53 -33 -125zM326 1481q0 43 16 80q18 33 43 32q25 0 43 -32q16 -37 16 -80q0 -45 -16 -78q-18 -35 -43 -35t-43 35q-16 33 -16 78z" />
<glyph unicode="&#xa;" horiz-adv-x="770" d="M266 1343h76l78 271h-78zM440 1348h78l78 266h-80z" />
<glyph horiz-adv-x="770" d="M274 -283q0 -63 39 -108q39 -43 99 -43q43 0 82 33v61q-27 -20 -52 -20q-43 0 -57 24q-18 25 -18 55q0 45 32 111q31 68 82 107h-143q-31 -59 -47.5 -112.5t-16.5 -107.5z" />
<glyph horiz-adv-x="768" d="M201 1614l114 -258h138l116 258h-96l-90 -166l-88 166h-94z" />
<glyph unicode="&#xd;" horiz-adv-x="305" d="M94 0h119v1143h-119v-1143z" />
<glyph horiz-adv-x="108" d="M-365 8h127l711 1589h-111z" />
<glyph horiz-adv-x="780" d="M45 1044h105v-1044h116v1044h301v-1044h119v1143h-416v84q0 168 39 213q39 43 97 43q35 0 79 -15v127q-61 18 -102 19q-102 0 -170 -96q-63 -94 -63 -326v-49h-105v-99z" />
<glyph horiz-adv-x="780" d="M43 1044h104v-1044h119v1044h207v99h-207v90q0 135 37 203q37 70 113 69q29 0 66.5 -6t82.5 -22v-1477h121v1579q-150 35 -262 35q-111 0 -164 -53q-59 -53 -86 -144q-12 -47 -19.5 -103.5t-7.5 -123.5v-47h-104v-99z" />
<glyph horiz-adv-x="757" d="M-25 657l113 66v-723h649v119h-514v686l111 59v107l-115 -64v645h-127v-721l-117 -69v-105z" />
<glyph horiz-adv-x="303" d="M-25 655l111 70v-725h125v786l117 68v127l-119 -70v703h-117v-783l-117 -71v-105z" />
<glyph horiz-adv-x="749" d="M49 0h643v135h-520l510 1251v166h-598v-116h479l-514 -1250v-186zM115 1898l141 -155h82l145 155h-94l-90 -63l-92 63h-92z" />
<glyph horiz-adv-x="720" d="M63 0h588v104h-469l455 887v152h-553v-99l442 -2l-463 -882v-160zM170 1614l114 -258h138l116 258h-96l-90 -166l-88 166h-94z" />
<glyph unicode=" "  horiz-adv-x="555" />
<glyph unicode="&#x09;" horiz-adv-x="555" />
<glyph unicode="&#xa0;" horiz-adv-x="555" />
<glyph unicode="!" horiz-adv-x="395" d="M119 1552l28 -1093h103l26 1093h-157zM139 0h119v129h-119v-129z" />
<glyph unicode="&#x22;" horiz-adv-x="651" d="M119 1614l26 -555h88l23 555h-137zM399 1614l23 -553h88l22 553h-133z" />
<glyph unicode="#" d="M39 434h123l-74 -434h94l74 432h242l-78 -432h96l74 422h239v110h-225l84 498h141v86h-122l75 436h-94l-74 -436h-239l71 436h-92l-73 -436h-242v-90h223l-84 -500h-139v-92zM274 528l84 496h240l-86 -496h-238z" />
<glyph unicode="$" d="M100 332q0 -121 62 -219q61 -100 229 -113v-121h109v121q96 23 147 82t82 154q29 96 29 186q0 39 -5 74.5t-16 70.5q-23 72 -71 125q-25 27 -53.5 50.5t-59.5 41.5l-53 29v631q49 -12 78 -49q27 -33 26 -88v-11h127v9q0 82 -49 155q-45 72 -184 88v131h-101v-131 q-98 -18 -153 -73q-57 -57 -84 -142q-29 -86 -29 -186q0 -131 45 -223q23 -47 67 -91.5t111 -84.5l39 -23v-619q-109 18 -139 78q-33 59 -33 148v10h-121v-10zM248 1151q0 106 35 184q33 80 114 105v-557l-26 16q-37 25 -60.5 54.5t-36.5 58.5q-27 55 -26 139zM498 117v545 l30 -21q31 -23 51.5 -48.5t34.5 -53.5q25 -60 25 -142q0 -70 -14 -127q-16 -63 -43 -102t-84 -51z" />
<glyph unicode="%" horiz-adv-x="1179" d="M41 1100q0 -211 63 -330q61 -123 156 -123q92 0 158 123q63 119 63 330q0 209 -63 330q-66 123 -158 122q-94 0 -156 -122q-63 -121 -63 -330zM147 1098q0 78 7.5 141.5t23.5 116.5q31 100 82 100t84 -100q16 -53 24.5 -116.5t8.5 -141.5t-8.5 -142.5t-24.5 -115.5 q-33 -100 -84 -101q-51 0 -82 100.5t-31 258.5zM174 0h125l688 1552h-110zM696 453q0 -207 63.5 -330t158.5 -123q92 0 157 123q64 123 64 330q0 205 -64 331q-66 121 -157 121q-94 0 -158 -123q-63 -127 -64 -329zM803 453q0 154 31 256q35 102 84 102t83 -102 q31 -102 31 -256q0 -158 -31 -258q-35 -100 -83 -101q-49 0 -84 101q-31 100 -31 258z" />
<glyph unicode="&#x26;" horiz-adv-x="948" d="M57 418q0 -61 9.5 -119.5t31.5 -114.5q39 -109 111 -170q68 -61 166 -61q78 0 139 43q33 20 63.5 53t63.5 80l25 -45q20 -45 47 -84h164q-102 154 -148 246q115 223 115 551v22h-117v-47q0 -78 -3 -134t-11 -97q-12 -78 -43 -144q-57 115 -113.5 245t-112.5 278 q43 37 77 84t63 104q55 111 55 229q0 104 -55 183q-53 78 -152 77q-63 0 -117 -41q-51 -43 -82 -124q-16 -41 -22 -81t-6 -81q0 -16 1 -34.5t3 -39.5q6 -41 18 -82q12 -43 56 -156q2 -4 4 -10t6 -16q-106 -84 -170 -221q-66 -133 -66 -293zM176 414q0 115 41 231 q43 113 119 182q57 -172 137 -350q39 -88 69.5 -153.5t55.5 -110.5q-74 -102 -121 -127q-51 -23 -84 -23q-53 0 -106.5 45.5t-81.5 127.5q-16 41 -22.5 85t-6.5 93zM328 1323q0 63 26 119q25 57 76 57q25 0 51.5 -20.5t40.5 -59.5q13 -41 13 -76q0 -68 -33 -151 q-35 -90 -99 -154q-10 27 -14 31q-16 41 -26.5 69.5t-14.5 45t-7 35t-7 36.5q-6 37 -6 68z" />
<glyph unicode="'" horiz-adv-x="393" d="M109 1614l41 -553h96l39 553h-176z" />
<glyph unicode="(" horiz-adv-x="581" d="M117 637q0 -92 8 -182t24.5 -182.5t42 -181.5t60.5 -177q70 -170 154 -287h90q-111 184 -160 332q-49 150 -74 326q-14 90 -20 177t-6 175q0 86 6 173t20 177q12 90 30.5 171t41 154.5t62.5 156.5t93 176h-81q-41 -57 -81 -128t-75 -159t-60.5 -177t-42 -181.5 t-24.5 -182.5t-8 -180z" />
<glyph unicode=")" horiz-adv-x="581" d="M86 -373h90q84 117 154 287q37 88 62.5 177t41.5 181q31 185 31 365q0 90 -8 180t-25 182q-31 182 -104 359q-35 88 -75 158.5t-81 128.5h-82q53 -92 93 -174t63 -158q49 -147 73 -326q14 -90 20.5 -177t6.5 -173q0 -88 -6 -175t-21 -177q-25 -176 -73 -326 q-25 -74 -64 -157t-96 -175z" />
<glyph unicode="*" horiz-adv-x="661" d="M59 1237l215 -41l-133 -192l80 -52l111 181l106 -181l84 54l-133 190l211 39l-18 104l-209 -57l10 213h-102l10 -219l-215 59z" />
<glyph unicode="+" d="M80 510h305v-510h98v510h308v98h-308v508h-98v-508h-305v-98z" />
<glyph unicode="," horiz-adv-x="395" d="M117 0h80q0 -63 -9 -104q-6 -47 -24 -91q-14 -39 -45 -73v-86q51 35 90 92q16 29 29.5 59.5t23.5 65.5q17 71 17 196v146h-162v-205z" />
<glyph unicode="-" horiz-adv-x="493" d="M49 580h395v98h-395v-98z" />
<glyph unicode="." horiz-adv-x="395" d="M113 0h168v209h-168v-209z" />
<glyph unicode="/" horiz-adv-x="700" d="M39 8h115l508 1589h-109z" />
<glyph unicode="0" d="M74 776q0 -383 100 -602q98 -221 260 -221t260 221q101 219 101 602q0 381 -101 600q-98 221 -260 221t-260 -221q-100 -219 -100 -600zM197 776q0 283 57 498q55 219 180 219t184 -219q56 -219 56 -498q0 -283 -56 -497q-57 -217 -184 -218q-125 0 -180 218 q-57 211 -57 497z" />
<glyph unicode="1" d="M113 0h637v117h-514h-123v-117zM193 1278l198 123v-1401h121v1552h-109l-210 -153v-121z" />
<glyph unicode="2" d="M113 0h637v117h-514v43q0 131 57 265t170 275l47 60q23 23 48.5 55.5t59.5 77.5q33 45 55.5 87t33.5 83q20 80 20 164q0 154 -70 262q-72 109 -235 108q-92 0 -150 -36q-59 -35 -94 -95q-35 -63 -35 -127v-49h115v49q0 61 39 107q41 47 121 47q88 0 137 -76 q47 -74 47 -174q0 -94 -37 -182q-16 -43 -56 -110.5t-112 -153.5l-67 -80q-59 -70 -101.5 -142.5t-66.5 -144.5q-49 -147 -49 -270v-160z" />
<glyph unicode="3" d="M111 223q0 -104 67 -186q68 -84 215 -84q168 0 252 153q82 152 82 340q0 162 -59 267q-59 106 -179 159q76 37 117 93q39 57 62 129q20 70 20 157q0 154 -72 250q-74 96 -215 96q-152 0 -215 -81q-66 -88 -65 -185v-39h112v39q0 47 21 86q18 41 57 58q39 18 84 18 q78 0 125 -66q47 -70 47 -182q0 -88 -28 -164q-33 -78 -78 -120q-49 -49 -133 -50h-74v-110h59q147 0 222 -111q74 -109 73 -270q0 -104 -24.5 -192.5t-71.5 -129.5q-49 -39 -109 -39q-76 0 -127 41q-51 39 -51 121v41h-114v-39z" />
<glyph unicode="4" d="M70 502h475v-502h117v502h139v98h-139v952h-117l-475 -923v-127zM193 598l348 696v-696h-348z" />
<glyph unicode="5" d="M131 209q0 -104 78 -182q80 -74 207 -74q164 0 243 153q78 160 78 353q0 150 -43 254q-43 102 -127 161.5t-235 59.5h-31v504h401v114h-505v-729h90q197 0 266 -112q66 -113 65 -277q0 -145 -51 -262q-49 -117 -151 -117q-78 0 -123 43t-45 109v41h-117v-39z" />
<glyph unicode="6" d="M115 766q0 -266 43 -451q23 -92 55.5 -158.5t73.5 -113.5q86 -90 182 -90q86 0 156 63q72 66 110.5 176.5t38.5 251.5q0 201 -76 338q-78 139 -202 140q-49 0 -90 -21q-23 -10 -42.5 -24.5t-41.5 -34.5q-20 -23 -41 -51.5t-43 -69.5v57q-2 98 7 190.5t25 184.5 q35 180 92.5 260t137.5 80q63 0 98 -39q33 -39 33 -84v-39h117v37q0 90 -63.5 159.5t-188.5 69.5q-184 0 -283 -225q-98 -227 -98 -606zM264 438q0 154 55.5 264.5t143.5 110.5q82 0 135 -96q55 -98 55 -264q0 -172 -53 -281q-53 -111 -131 -111q-57 0 -104 45 q-47 49 -74 140q-27 88 -27 192z" />
<glyph unicode="7" d="M98 1438h570l-25 -52q-90 -195 -221 -497q-66 -154 -106 -272.5t-56 -204.5q-31 -172 -31 -342v-70h127v78q0 98 19 233q8 68 34.5 167.5t71.5 230.5q47 131 90 241.5t86 202.5l84 178q2 4 8.5 16t16.5 35v170h-668v-114z" />
<glyph unicode="8" d="M102 420q0 -117 41 -236q43 -117 113 -174q66 -57 178 -57q111 0 180 57q72 59 111 174q41 117 41 236q0 131 -51 246q-49 117 -152 184q82 57 123 145t41 199t-37 207q-41 100 -108 147q-72 49 -150 49t-147 -49q-70 -47 -107 -145t-37 -207q0 -111 41 -199 q39 -84 121 -145q-98 -70 -151 -186q-49 -117 -50 -246zM217 420q0 90 29 186q29 88 80 139q49 49 106 50q55 0 109 -50q49 -51 80 -139q30 -94 28 -186q0 -88 -28 -180q-25 -86 -78 -134q-53 -43 -111 -43q-57 0 -108 43q-51 45 -80 134q-27 86 -27 180zM258 1202 q0 129 53 207q51 80 121 80t123 -80q53 -78 53 -207q0 -117 -49 -203q-49 -88 -127 -88q-76 0 -125 88q-49 86 -49 203z" />
<glyph unicode="9" d="M94 1104q0 -195 76 -336q76 -139 203 -139q47 0 90 18q39 18 84 62q45 45 86 125l-2 -60q-2 -98 -9.5 -190t-23.5 -185q-37 -182 -94 -260q-59 -80 -135 -80q-68 0 -101 39q-33 43 -32 84v41h-113v-39q0 -92 61 -161q66 -70 189 -70q184 0 282 225q99 227 99 608 q0 266 -43 449q-47 186 -131 272q-82 90 -183 90q-84 0 -153 -63q-68 -61 -109 -176q-41 -117 -41 -254zM215 1100q0 162 53 278q51 113 129 113q53 0 105 -47q45 -45 73 -139q27 -89 27 -193q0 -154 -55 -264.5t-141 -110.5q-80 0 -136 97q-55 98 -55 266z" />
<glyph unicode=":" horiz-adv-x="395" d="M113 0h168v209h-168v-209zM113 909h168v207h-168v-207z" />
<glyph unicode=";" horiz-adv-x="395" d="M113 0h82q0 -29 -2.5 -55.5t-6.5 -48.5q-8 -45 -24 -91q-10 -23 -20.5 -40t-26.5 -33v-86q57 39 90 92q39 61 53 125q18 67 18 196v146h-163v-205zM113 909h168v207h-168v-207z" />
<glyph unicode="&#x3c;" d="M100 555l666 -520v115l-522 403l524 416v112z" />
<glyph unicode="=" d="M80 338h711v98h-711v-98zM80 680h711v98h-711v-98z" />
<glyph unicode="&#x3e;" d="M100 35l668 530l-668 516v-104l525 -410l-525 -417v-115z" />
<glyph unicode="?" horiz-adv-x="741" d="M84 1348h119v8q0 74 32.5 106.5t92.5 32.5q72 0 121 -55q47 -59 47 -142q0 -53 -21 -100q-10 -27 -27.5 -60.5t-41.5 -74.5l-50 -84q-18 -33 -35.5 -74t-33.5 -92q-33 -100 -33 -264v-94h121v129q0 143 28 213q12 35 30 66.5t40 62.5l43 63q70 100 86 170q14 66 14 117 q0 88 -34 158q-33 76 -101 120q-66 43 -139 43q-74 0 -133 -32q-61 -35 -92 -95q-33 -57 -33 -114v-8zM254 0h119v129h-119v-129z" />
<glyph unicode="@" horiz-adv-x="1134" d="M82 502q0 -113 14.5 -217.5t44.5 -202.5q61 -197 176 -299q113 -104 250 -105q125 0 240 97v116q-123 -125 -242 -124q-100 0 -203 90q-102 94 -151 276q-25 92 -36 187.5t-11 193.5q-2 199 49 371t149 260q96 88 218 88q106 0 202 -78q96 -82 144 -223q51 -139 51 -328 q0 -166 -43 -260q-43 -96 -98 -96q-39 0 -64 47q-23 51 -22 186v434h-125q-121 0 -183 -49q-57 -43 -98 -153q-37 -109 -37 -217q0 -43 6 -82t17 -76q18 -72 63 -113q39 -41 88 -41q45 0 88 45q45 45 80 123q8 -100 56 -143q49 -43 104 -43q68 0 123 59q55 55 90 164 q16 53 24.5 113.5t8.5 130.5q0 190 -60 350q-57 158 -161 250q-106 90 -250 90q-160 0 -271 -104q-115 -104 -172 -297q-31 -98 -45 -202t-14 -218zM414 483q0 47 3 88t13 78q14 70 53 125q23 29 47 41q27 12 80 12h41v-309q-59 -145 -94 -184q-33 -39 -68 -39q-27 0 -51 41 q-25 43 -24 147z" />
<glyph unicode="A" horiz-adv-x="948" d="M20 0h121l115 442h426l106 -442h140l-373 1552h-129zM287 559l188 731l174 -731h-362z" />
<glyph unicode="B" horiz-adv-x="829" d="M96 0h293q166 0 229 57q63 53 103 152q37 94 37 205q0 131 -55.5 235.5t-176.5 147.5q113 88 152 192q43 111 43 219q0 100 -33 178q-31 82 -90 123q-61 43 -242 43h-260v-1552zM225 102v641h97q131 0 188 -51q61 -49 92 -129t31 -174q0 -119 -49 -201q-47 -86 -176 -86 h-183zM225 846v604h166q117 0 160 -72q45 -70 45 -172q0 -84 -29 -174q-27 -82 -75 -131q-23 -23 -60 -39t-84 -16h-123z" />
<glyph unicode="C" horiz-adv-x="849" d="M61 776q0 -408 119 -616q121 -207 305 -207q90 0 162 37q70 41 109 119q39 80 39 159v11h-113v-11q0 -80 -43 -147q-43 -66 -147 -66q-150 0 -226 203q-73 196 -73 510v8q0 313 73.5 516t225.5 203q59 0 102 -25q41 -27 65 -79q23 -51 23 -107v-8h117v6q0 74 -41 160 q-41 82 -109 119q-68 38 -157 38h-5q-190 0 -307 -206q-119 -207 -119 -617z" />
<glyph unicode="D" horiz-adv-x="913" d="M94 0h291q186 0 280.5 100.5t141.5 274.5q47 176 47 407q0 248 -53 426q-27 86 -61.5 151.5t-82.5 106.5q-92 86 -290 86h-273v-1552zM223 123v1323h150q147 0 215 -76q70 -76 102 -231q33 -152 33 -375q0 -219 -37 -362.5t-106 -211.5q-67 -67 -199 -67h-4h-154z" />
<glyph unicode="E" horiz-adv-x="749" d="M94 0h592v115h-463v641h375v108h-375v574h428v114h-557v-1552z" />
<glyph unicode="F" horiz-adv-x="720" d="M94 0h129v719h375v108h-375v611h428v114h-557v-1552z" />
<glyph unicode="G" horiz-adv-x="878" d="M59 758q0 -272 56 -447q29 -86 63.5 -152.5t81.5 -113.5q92 -92 240 -92q141 0 299 117v667h-336v-96h215v-516q-109 -63 -193 -64q-139 0 -217 195q-41 96 -59.5 227t-18.5 297q0 336 76 525q74 190 219 190q57 0 99 -27q43 -25 67 -71q27 -45 27 -99v-10h117v8 q0 74 -43 152q-41 76 -115 113q-70 36 -155 36h-5q-131 0 -221 -96q-92 -92 -145 -266q-25 -86 -38.5 -205t-13.5 -272z" />
<glyph unicode="H" horiz-adv-x="899" d="M94 0h129v733h453v-733h129v1552h-129v-718h-453v718h-129v-1552z" />
<glyph unicode="I" horiz-adv-x="317" d="M94 0h129v1552h-129v-1552z" />
<glyph unicode="J" horiz-adv-x="641" d="M25 201q0 -92 59 -170q61 -78 203 -78q88 0 139 45q49 43 84 137q35 98 35 348v1069h-125v-1106q0 -207 -17 -272q-16 -63 -49 -90q-35 -31 -73 -31q-37 0 -68 19q-31 14 -47 51q-6 16 -10 34.5t-4 41.5v10h-127v-8z" />
<glyph unicode="K" horiz-adv-x="864" d="M92 0h129v809l461 -809h162l-471 823l407 729h-145l-414 -741v741h-129v-1552z" />
<glyph unicode="L" horiz-adv-x="759" d="M92 0h647v115h-518v1437h-129v-1552z" />
<glyph unicode="M" horiz-adv-x="1026" d="M94 0h111v934l-4 254h2l57 -256l186 -752h150l160 746l65 286l-2 -280v-932h115v1552h-125l-283 -1216l-307 1216h-125v-1552z" />
<glyph unicode="N" horiz-adv-x="923" d="M92 0h121v1098l-2 125l37 -115l452 -1108h129v1552h-118v-1101l2 -121l-41 123l-453 1099h-127v-1552z" />
<glyph unicode="O" horiz-adv-x="958" d="M61 776q0 -397 117 -608q117 -215 301 -215t301 215q117 211 117 608q0 395 -117 608q-115 213 -301 213t-301 -213q-117 -213 -117 -608zM193 776q0 326 75 520q76 197 211 197t213 -197q76 -194 76 -520q0 -330 -76 -520q-78 -197 -213 -197t-211 197q-75 188 -75 511 v9z" />
<glyph unicode="P" horiz-adv-x="759" d="M94 0h129v637h121q188 0 281 143q94 144 94 357q0 129 -33 221q-35 96 -98 145q-66 49 -219 49h-275v-1552zM223 743v707h150q127 0 174 -86q43 -86 43 -227q0 -162 -55 -279q-53 -115 -226 -115h-86z" />
<glyph unicode="Q" horiz-adv-x="958" d="M61 776q0 -397 117 -608q117 -215 301 -215h15q8 0 18 2q-43 -92 -43 -178q0 -68 39 -109q39 -43 98 -43q37 0 82 33v61q-27 -20 -51 -20q-41 0 -59 25q-16 29 -17 55q0 10 10.5 46t23.5 74t23 67l11 30h2q84 51 149 172q117 211 117 608q0 395 -117 608 q-115 213 -301 213t-301 -213q-117 -213 -117 -608zM193 776q0 326 75 520q76 197 211 197t213 -197q76 -194 76 -520q0 -330 -76 -520q-78 -197 -213 -197t-211 197q-75 188 -75 511v9z" />
<glyph unicode="R" horiz-adv-x="790" d="M133 0h131v684h129q41 -59 73 -127t58 -145l138 -412h137l-156 451q-8 25 -18.5 50t-22.5 54q-10 29 -20.5 48.5t-18.5 33.5q-14 23 -49 51q43 29 75 58.5t52 64.5q43 66 64 152q12 41 17 85t5 91q0 119 -33 211q-29 94 -88 149q-59 53 -170 53h-303v-1552zM262 801v649 h135q88 0 127 -45q16 -23 30.5 -50.5t25.5 -60.5q18 -65 18 -145q0 -92 -23 -178q-25 -82 -65 -127q-43 -43 -123 -43h-125z" />
<glyph unicode="S" horiz-adv-x="790" d="M74 285q0 -100 39 -179q37 -82 110 -118q76 -35 183 -35q117 0 184 55q72 57 108 162q39 104 39 223q0 125 -49 230q-25 53 -73 102t-119 102l-62 45q-47 35 -77.5 63t-51.5 48q-39 45 -59 104q-20 61 -21 136q0 109 45 190.5t142 81.5q49 0 84 -16q35 -14 59 -52 q18 -37 18 -73v-11h129v9q0 98 -61 172q-65 73 -213 73h-4q-170 0 -246 -118q-80 -121 -80 -291q0 -100 27 -178q27 -82 76 -144q27 -33 66.5 -63.5t88.5 -67.5l52 -37q100 -74 149 -143q49 -72 49 -186q0 -141 -57 -226q-55 -86 -141 -86q-96 0 -154 49q-57 51 -57 179v10 h-123v-10z" />
<glyph unicode="T" horiz-adv-x="835" d="M20 1452h336v-1452h127v1452h332v100h-795v-100z" />
<glyph unicode="U" d="M80 526q0 -258 43 -364.5t131 -157.5q84 -51 192 -51q115 0 187 63q74 63 115 174q40 113 40 383v979h-116v-960q0 -141 -7.5 -232.5t-19.5 -134.5q-29 -92 -78 -129q-51 -39 -121 -39q-72 0 -129 39q-55 37 -84 119q-26 71 -26 287v16v1034h-127v-1026z" />
<glyph unicode="V" horiz-adv-x="948" d="M20 1552l375 -1552h131l402 1552h-119l-336 -1298l-313 1298h-140z" />
<glyph unicode="W" horiz-adv-x="1232" d="M49 1552l223 -1552h134l184 1100l24 225l27 -213l180 -1112h133l230 1552h-111l-164 -1099l-22 -209h-2l-25 217l-176 1091h-125l-180 -1093l-25 -211h-2l-24 215l-158 1089h-121z" />
<glyph unicode="X" horiz-adv-x="794" d="M18 0h140l241 606l232 -606h145l-305 805l303 747h-129l-235 -583l-224 583h-141l291 -761z" />
<glyph unicode="Y" horiz-adv-x="794" d="M16 1552l320 -821v-731h129v731l313 821h-123l-243 -624l-246 624h-150z" />
<glyph unicode="Z" horiz-adv-x="749" d="M49 0h643v135h-520l510 1251v166h-598v-116h479l-514 -1250v-186z" />
<glyph unicode="[" horiz-adv-x="581" d="M147 -373h322v101h-213v1816h213v101h-322v-2018z" />
<glyph unicode="\" horiz-adv-x="700" d="M39 1597l512 -1587h111l-510 1587h-113z" />
<glyph unicode="]" horiz-adv-x="581" d="M113 -272v-101h319v2018h-319v-101h213v-1816h-213z" />
<glyph unicode="^" d="M82 436h108l246 768l244 -768h108l-354 1110z" />
<glyph unicode="_" horiz-adv-x="716" d="M-43 -434v-98h791v98h-791z" />
<glyph unicode="`" horiz-adv-x="770" d="M256 1614l166 -250h92l-143 250h-115z" />
<glyph unicode="a" horiz-adv-x="720" d="M70 270q0 -139 59 -221q61 -80 145 -80q49 0 103 31q51 29 133 147q0 -61 18 -147h127q-10 53 -15 99t-5 87q-2 41 -2 78v76v444q0 180 -31 248q-27 63 -90 105q-63 39 -141 39t-141.5 -33t-104.5 -103q-39 -66 -39 -127v-14h123v16q0 63 41 115q39 51 112 51 q63 0 106.5 -53t43.5 -182v-158l-63 -18q-209 -61 -293 -152q-86 -86 -86 -248zM195 250q0 96 51 170q27 35 84 70.5t147 78.5l37 17v-127q0 -121 -27 -203q-29 -86 -75 -137q-51 -51 -99 -51q-31 0 -57 24q-33 23 -45 66q-16 45 -16 92z" />
<glyph unicode="b" horiz-adv-x="796" d="M86 0h121q2 23 2 51q0 29 2 64l4 84q37 -106 68 -150q37 -43 71 -59q39 -20 86 -21q137 0 217 172q78 168 78 432q0 176 -37 318q-37 143 -104 213q-68 72 -148 72q-45 0 -86 -23q-20 -12 -38.5 -28.5t-34.5 -39.5q-35 -43 -74 -141v670h-117v-1276v-27q0 -16 -2 -43 q0 -25 -1 -57.5t-3 -73.5q0 -41 -1 -74.5t-3 -62.5zM213 565q0 72 5 138.5t18 125.5q25 119 73.5 180.5t106.5 61.5q80 0 139 -110q59 -107 59 -398q0 -250 -57 -366q-59 -123 -145 -123q-96 0 -148 139q-51 135 -51 352z" />
<glyph unicode="c" horiz-adv-x="710" d="M61 571q0 -281 84 -442q82 -160 240 -160q80 0 137 33q55 33 92 98q35 61 35 127v11h-108v-13q0 -57 -35 -108q-37 -45 -113 -45q-88 0 -149 116q-61 119 -62 383q0 264 62 381q57 119 149 119q76 0 111 -47q37 -47 37 -106v-41h112v38q0 72 -35 132q-39 63 -94 94 q-59 35 -139 35q-154 0 -240 -160q-84 -162 -84 -445z" />
<glyph unicode="d" horiz-adv-x="784" d="M59 569q0 -176 37 -317q37 -139 105 -211q66 -72 147 -72q43 0 84 15q39 14 76 57q35 41 72 147v-188h120v1614h-118v-666q-18 53 -36 88t-34 56q-31 43 -72 61q-41 23 -86 23q-137 0 -217 -172q-78 -178 -78 -435zM180 580q0 240 58 366q57 123 145 123q94 0 147 -139 q54 -142 54 -355q0 -143 -24.5 -261.5t-74.5 -180.5q-47 -59 -104 -59q-86 0 -145 108q-55 111 -56 398z" />
<glyph unicode="e" horiz-adv-x="749" d="M59 563q0 -258 88 -426q86 -168 246 -168q80 0 139 33q61 33 99 98q37 63 37 127v39h-109v-41q0 -57 -37 -106q-35 -47 -116 -47h-6q-107 0 -167 141q-61 143 -61 367h508v59q0 205 -39 315q-37 113 -102 166q-66 55 -148 56q-143 0 -239 -175q-92 -172 -93 -438z M176 672q18 184 76 286q59 102 125 103q55 0 100 -45q43 -43 68 -133q26 -83 26 -180v-7v-24h-395z" />
<glyph unicode="f" horiz-adv-x="509" d="M53 1044h103v-1044h118v1044h207v99h-205v90q0 174 41 221q39 47 97 47q16 0 35.5 -2t44.5 -6v106q-57 14 -101 15q-106 0 -171.5 -96.5t-65.5 -325.5v-49h-103v-99z" />
<glyph unicode="g" horiz-adv-x="794" d="M59 582q0 -258 82 -422q82 -160 209 -160q78 0 137 59q57 57 95 177v-148q0 -215 -29 -301q-29 -84 -72 -121q-45 -39 -108 -39q-80 0 -129 43q-51 43 -51 113v14h-109v-12q0 -68 35 -123q33 -59 104 -94q70 -35 156 -35q90 0 162 55q68 53 114 164q23 55 34 169t11 288 v934h-118v-176q-53 127 -107 166q-53 43 -119 43q-88 0 -157 -70q-66 -72 -103 -211q-37 -141 -37 -313zM180 580q0 117 14.5 205.5t43.5 154.5q57 129 147 129q78 0 141 -129q60 -129 60 -330q0 -113 -14.5 -203t-43.5 -161q-55 -143 -147 -144q-55 0 -105 58 q-51 57 -71 164q-25 111 -25 256z" />
<glyph unicode="h" horiz-adv-x="761" d="M94 0h119v592q0 168 29 264q27 92 73 145q49 53 101 54q41 0 80 -39q35 -41 49 -107q12 -68 12 -229v-680h119v727q0 96 -7 163.5t-22 110.5q-31 88 -82 129q-53 45 -121 46q-47 0 -84 -25q-39 -20 -75 -68q-35 -43 -72 -137v668h-119v-1614z" />
<glyph unicode="i" horiz-adv-x="305" d="M94 0h119v1143h-119v-1143zM94 1448h119v131h-119v-131z" />
<glyph unicode="j" horiz-adv-x="360" d="M-74 -291v-121q29 -10 54.5 -13t48.5 -3q68 0 123 49q59 49 84 133q24 82 24 246v1143h-117v-1159q0 -188 -37 -234q-41 -49 -100 -49q-10 0 -23.5 1t-29.5 3zM143 1454h119v125h-119v-125z" />
<glyph unicode="k" horiz-adv-x="700" d="M92 0h123v598l315 -598h152l-322 612l308 531h-138l-315 -545v1016h-123v-1614z" />
<glyph unicode="l" horiz-adv-x="305" d="M94 0h119v1614h-119v-1614z" />
<glyph unicode="m" horiz-adv-x="1165" d="M92 0h121v586q0 160 25 256q14 47 31.5 87t41.5 68q45 57 95 58q33 0 63.5 -31t42.5 -86q14 -55 14 -268v-670h121v586q0 170 27 262q25 94 71 149q45 57 97 58q35 0 63 -31q27 -33 41 -86q14 -55 15 -268v-670h120v715q0 205 -26 284q-27 86 -76 131q-51 45 -111 46 q-41 0 -77 -25q-37 -23 -74 -68q-35 -47 -72 -145q-29 109 -57 149q-27 43 -70 66q-41 23 -84 23q-41 0 -82 -23q-37 -23 -71 -68q-33 -45 -70 -149v207h-119v-1143z" />
<glyph unicode="n" horiz-adv-x="761" d="M94 0h119v592q0 168 29 264q27 92 73 145q49 53 101 54q39 0 78 -39q35 -39 51 -107q12 -68 12 -229v-680h119v727q0 96 -7 163.5t-22 110.5q-31 88 -82 129q-53 45 -121 46q-47 0 -84 -25q-39 -20 -75 -68q-35 -43 -72 -137v197h-119v-1143z" />
<glyph unicode="o" horiz-adv-x="790" d="M59 571q0 -301 99 -450q98 -152 237 -152q137 0 236 152q98 149 98 450q0 299 -98 453q-98 152 -236 152q-139 0 -237 -152q-98 -154 -99 -453zM180 571q0 223 60 361q57 137 155 137t156 -137q59 -132 59 -361t-59 -360q-57 -137 -156 -137q-98 0 -155 137 q-59 137 -60 360z" />
<glyph unicode="p" horiz-adv-x="786" d="M86 -434h121v629q37 -106 67 -146q31 -41 72 -59q39 -20 84 -21q139 0 217 172q78 168 78 432q0 176 -37 318q-37 143 -104 213q-68 72 -150 72q-41 0 -86 -23q-20 -12 -38.5 -27.5t-35.5 -38.5q-37 -43 -69 -143v199h-119v-1577zM203 565q0 139 22 264q25 119 74 180.5 t107 61.5q78 0 139 -110q59 -113 59 -398q0 -246 -57 -366q-55 -121 -146 -121q-96 0 -147 137q-51 135 -51 352z" />
<glyph unicode="q" horiz-adv-x="784" d="M59 569q0 -176 37 -317q37 -139 105 -211q66 -72 147 -72q45 0 84 21q45 23 76 59.5t70 136.5v-620h122v1577h-118v-195q-18 53 -36 88t-34 56q-31 43 -72 61q-41 23 -86 23q-137 0 -217 -172q-78 -178 -78 -435zM180 578q0 242 58 368q57 123 145 123q94 0 147 -139 q54 -142 54 -355q0 -145 -25 -262q-25 -123 -74 -180q-49 -61 -104 -61q-78 0 -139.5 110.5t-61.5 395.5z" />
<glyph unicode="r" horiz-adv-x="503" d="M92 0h121v594q0 254 63 350q61 100 127 100q25 0 41 -4l50 -12v125q-29 23 -66 23q-41 0 -80 -25q-18 -14 -36.5 -31.5t-35.5 -42.5q-18 -25 -33.5 -58.5t-31.5 -76.5v201h-119v-1143z" />
<glyph unicode="s" horiz-adv-x="663" d="M53 258q0 -43 9.5 -85t25.5 -73q35 -66 90 -96q29 -18 65 -26.5t79 -8.5q137 0 206 107q72 106 72 262q0 70 -14 119q-8 25 -18.5 47t-26.5 39q-25 27 -43 41q-10 8 -39 22.5t-72 38.5l-41 25l-55 30q-57 29 -84 72q-25 39 -25 102q0 84 39 142q37 55 109 55q61 0 96 -33 q18 -16 27.5 -42.5t9.5 -55.5l112 -4q0 45 -13 89t-42 79q-55 72 -184 72q-131 0 -199 -101q-67 -97 -67 -223q0 -98 33.5 -167t107.5 -103l82 -39l39 -27l59 -35q90 -47 90 -180q0 -88 -45 -160q-44 -69 -119 -69h-2q-82 0 -118 49q-16 25 -25.5 60.5t-9.5 74.5z" />
<glyph unicode="t" horiz-adv-x="577" d="M45 1044h125v-622q0 -195 27 -277q27 -88 79 -131q53 -45 119 -45q45 0 131 31v125q-74 -29 -104 -29q-45 0 -76 31q-29 27 -45 94q-8 33 -11 94.5t-3 145.5v586h209v96h-207v266l-119 -31v-235h-125v-99z" />
<glyph unicode="u" horiz-adv-x="759" d="M84 420q0 -274 67.5 -362.5t165.5 -88.5q47 0 82 21q37 23 72 65q37 43 74 133v-188h121v1143h-117v-594q0 -166 -29 -264q-29 -96 -76 -146q-47 -53 -98 -53q-63 0 -102 55q-41 53 -41 320v682h-119v-723z" />
<glyph unicode="v" horiz-adv-x="735" d="M16 1143l289 -1143h119l297 1143h-119l-231 -895l-230 895h-125z" />
<glyph unicode="w" horiz-adv-x="1017" d="M20 1143l203 -1143h123l131 735l27 211l24 -201l146 -745h121l202 1143h-110l-125 -713l-25 -217h-2l-33 231l-139 699h-119l-127 -707l-22 -229h-2l-23 221l-127 715h-123z" />
<glyph unicode="x" horiz-adv-x="690" d="M35 0h131l176 416l170 -416h145l-247 596l231 547h-121l-172 -406l-164 406h-135l232 -565z" />
<glyph unicode="y" horiz-adv-x="745" d="M23 1143l309 -1104l-13 -49q-20 -86 -37.5 -140.5t-29.5 -78.5q-25 -51 -64 -74q-37 -25 -86 -25h-67v-106h88q72 0 121 33q47 31 86 106q41 78 102 307l295 1131h-115l-223 -850l-237 850h-129z" />
<glyph unicode="z" horiz-adv-x="720" d="M63 0h588v104h-469l455 887v152h-553v-99l442 -2l-463 -882v-160z" />
<glyph unicode="{" horiz-adv-x="587" d="M133 586h35q63 0 84 -54q20 -49 20 -120q0 -43 -3 -87t-11 -92l-16 -106q-8 -51 -11.5 -99t-3.5 -96q0 -137 60 -221q61 -84 143 -84h10v103h-14q-33 0 -61 47q-27 47 -27 139v29q0 12 2 24l6 51l14 127q8 72 11.5 120t3.5 73q0 84 -31 168t-102 127q70 39 104 125 q31 86 31 170q0 25 -4 74t-13 120l-14 129l-6 54q-2 10 -3 23t-1 30q0 92 29 139q27 47 61 47h14v99h-10q-84 0 -143.5 -84t-59.5 -220q0 -47 3 -96t12 -100l16 -107q8 -47 11 -92t3 -86q0 -66 -22 -121q-23 -53 -82 -53h-35v-100z" />
<glyph unicode="|" horiz-adv-x="321" d="M109 8h104v1589h-104v-1589z" />
<glyph unicode="}" horiz-adv-x="587" d="M150 -270v-103h8q84 0 143 84q61 82 61 221q0 47 -4 95.5t-12 99.5l-16 106q-8 47 -11.5 91.5t-3.5 85.5q0 68 23 122q18 55 82 56h35v98h-35q-59 0 -82 53q-20 57 -21 121q0 82 13 178l14 107q8 51 12 99t4 95q0 137 -59 221.5t-143 84.5h-8v-101h12q35 0 61 -47 q29 -47 29 -137v-31q0 -12 -2 -24l-6 -54l-17 -127q-8 -72 -11 -120t-3 -72q0 -88 31 -170q31 -86 102 -127q-74 -45 -102 -127q-31 -84 -31 -168q0 -25 3 -73t11 -120l15 -127l6 -51q2 -10 3 -23.5t1 -29.5q0 -92 -29 -139q-27 -47 -63 -47h-10z" />
<glyph unicode="~" d="M82 428h76v16q0 35 12 82q12 43 35 66q20 20 47 20q51 0 119 -61l63 -59q100 -92 166 -93q66 0 127 68q59 66 59 209v14h-77v-16q0 -61 -23 -119q-25 -53 -70 -53q-43 0 -114 59l-76 68q-27 23 -46.5 37t-31.5 22t-23.5 12.5t-21.5 8.5q-18 8 -41 8q-80 0 -131 -82 q-49 -84 -49 -193v-14z" />
<glyph unicode="&#xa1;" horiz-adv-x="395" d="M115 -434h166l-31 1096h-107zM137 987h119v129h-119v-129z" />
<glyph unicode="&#xa2;" d="M125 784q0 -78 6 -145.5t23 -126.5q33 -125 82 -193q53 -76 155 -102v-217h107v209q113 20 166 110q49 86 49 166h-113v-12q0 -41 -25 -86q-23 -47 -79 -65v909q102 -29 102 -113v-8h117v6q0 49 -25 96q-27 49 -67 76q-41 29 -129 45v221h-99v-225q-100 -25 -157 -100 q-59 -82 -86 -188.5t-27 -256.5zM244 784q0 61 4 113.5t12 99.5q16 92 43 144q31 51 86 82v-885q-57 35 -84 94q-29 57 -45 148q-8 43 -12 94t-4 110z" />
<glyph unicode="&#xa3;" d="M100 0h631v109h-512q55 74 84 139q25 61 49 172q10 57 19.5 111.5t17.5 109.5l21 154h231v102h-217l22 195q23 174 37 241q18 76 47 107q29 35 72 35q53 -1 131 -52v113q-49 43 -82 53q-25 8 -57 8q-72 0 -119 -47q-51 -47 -82 -131q-29 -78 -51 -258l-35 -266h-149v-100 h137l-19 -156q-10 -90 -23 -161.5t-30 -127.5q-16 -53 -46 -98t-77 -80v-172z" />
<glyph unicode="&#xa4;" horiz-adv-x="849" d="M29 567h82q25 -260 110 -407q117 -207 303 -207q94 0 162 37q68 39 109 119q41 86 41 159v11h-113v-11q0 -80 -43 -147q-43 -66 -148 -66q-152 0 -225 203q-51 131 -65 309h497v101h-506q0 27 -1 53.5t-1 54.5q0 35 1 68t4 65h503v101h-495q18 164 61 282q76 203 227 203 q59 0 103 -25q43 -29 63 -79q25 -49 25 -107v-8h115v6q0 80 -41 160q-41 82 -109 119q-66 39 -162 38q-186 0 -307 -206q-41 -72 -67.5 -167.5t-38.5 -215.5h-84v-101h75q-2 -33 -2 -65v-68v-55q0 -27 2 -53h-75v-101z" />
<glyph unicode="&#xa5;" d="M49 1552l338 -850h-248v-94h246v-237h-246v-90h246v-281h119v281h241v92h-239v235h242v107h-244l315 837h-110l-254 -671l-273 671h-133z" />
<glyph unicode="&#xa6;" horiz-adv-x="321" d="M109 -18h104v673h-104v-673zM109 926h104v671h-104v-671z" />
<glyph unicode="&#xa7;" d="M88 -33v-8q0 -123 67.5 -227.5t272.5 -104.5q109 0 178 54q63 51 101 135q18 41 26 87t8 99q0 72 -18 133q-23 66 -94 139q116 130 116 275q0 111 -49 190q-27 39 -68.5 80t-101.5 86l-114 82q-47 35 -78 71t-49 68q-39 63 -39 148q0 104 51 161.5t131 57.5q74 0 121 -33 q47 -37 47 -106v-11h129v9q0 98 -63 174q-66 72 -211 71q-156 0 -238 -104q-84 -102 -84 -264q0 -82 25 -150q29 -74 77 -129q-45 -49 -71 -121q-31 -78 -31 -147q0 -41 8 -80t25 -78q16 -41 49 -76.5t80 -72.5l129 -101q66 -51 105.5 -92t62.5 -69q20 -35 28 -64 q6 -18 8.5 -36.5t2.5 -37.5q0 -88 -47 -165q-49 -76 -150 -76q-66 0 -117 24q-53 25 -77 76q-23 55 -23 125v8h-125zM246 700q0 20 2 42t6 46q6 45 47 109l166 -123q51 -39 82 -74.5t45 -64.5q29 -55 29 -125q0 -96 -60 -174l-182 135q-47 37 -74.5 68.5t-38.5 54.5 q-23 49 -22 106z" />
<glyph unicode="&#xa8;" horiz-adv-x="770" d="M188 1317h119v129h-119v-129zM465 1317h119v129h-119v-129z" />
<glyph unicode="&#xa9;" horiz-adv-x="1144" d="M51 774q0 -219 72 -416q76 -197 192 -299q119 -106 258 -106q137 0 256 106q123 106 193 299q74 193 74 416q0 217 -72 414q-35 96 -83 171t-107 130q-125 109 -261 108q-139 0 -260 -108q-125 -113 -192 -301q-70 -190 -70 -414zM127 774q0 197 57 367q61 172 164 268 q106 98 223 98q119 0 224 -98q106 -100 163 -268q60 -174 60 -367q0 -203 -62 -371q-59 -170 -163 -266q-100 -90 -222 -94q-119 0 -219 94q-53 47 -93 113.5t-71 152.5q-61 168 -61 371zM297 786q0 -150 39 -268q37 -121 106 -184q68 -61 162 -62q102 0 176 45v97 q-90 -55 -157 -56q-102 0 -160 105q-61 104 -62 317q0 215 60 318q61 98 153 98q80 0 166 -55v92q-88 47 -182 47q-154 0 -227 -150q-74 -152 -74 -344z" />
<glyph unicode="&#xaa;" horiz-adv-x="436" d="M43 1077q0 -84 37 -129q41 -47 90 -47q35 0 70 23q33 20 67 67q0 -12 2 -29.5t6 -37.5h88q-8 41 -11 89t-3 107v250q0 102 -18 143q-16 41 -56 62q-37 25 -86 24q-49 0 -88 -20q-37 -16 -63 -53q-23 -35 -23 -72v-6h80v6q0 35 25 57q27 23 63 23q41 0 64 -33 q20 -33 20 -98v-86l-33 -10q-133 -39 -180 -88q-51 -49 -51 -142zM129 1067q0 51 31 88q16 18 49 37.5t82 42.5l14 6v-59q0 -113 -39 -158q-41 -49 -73 -49q-20 0 -41 22q-23 23 -23 70z" />
<glyph unicode="&#xab;" horiz-adv-x="694" d="M61 481l191 -325h110l-180 401l178 404h-102l-197 -328v-152zM338 483l190 -327h111l-180 399l180 406h-104l-197 -328v-150z" />
<glyph unicode="&#xac;" d="M80 510h612v-328h99v426h-711v-98z" />
<glyph unicode="&#xad;" horiz-adv-x="493" d="M49 580h395v98h-395v-98z" />
<glyph unicode="&#xae;" horiz-adv-x="1144" d="M51 774q0 -219 72 -416q76 -197 192 -299q119 -106 258 -106q137 0 256 106q123 106 193 299q74 193 74 416q0 217 -72 414q-35 96 -83 171t-107 130q-125 109 -261 108q-139 0 -260 -108q-125 -113 -192 -301q-70 -190 -70 -414zM127 774q0 197 57 367q61 172 164 268 q106 98 223 98q119 0 224 -98q106 -100 163 -268q60 -174 60 -367q0 -203 -62 -371q-59 -170 -163 -266q-100 -90 -222 -94q-119 0 -219 94q-53 47 -93 113.5t-71 152.5q-61 168 -61 371zM373 293h102v420h76q16 0 51 -111l23 -70l77 -235h113l-94 278q-37 106 -72 144 q61 39 92 117q31 76 31 159q0 70 -22.5 133.5t-61.5 94.5q-39 35 -113 34h-202v-964zM477 795v379h76q53 0 74 -27q20 -23 32 -64q11 -41 11 -84q0 -80 -27 -141q-29 -63 -96 -63h-70z" />
<glyph unicode="&#xaf;" horiz-adv-x="770" d="M207 1311h356v80h-356v-80z" />
<glyph unicode="&#xb0;" horiz-adv-x="444" d="M53 1341q0 -102 49 -178q51 -76 119 -76q70 0 121 76q49 76 49 178q0 104 -49 183q-53 74 -121 73q-68 0 -119 -73q-49 -78 -49 -183zM109 1339q0 78 34 138q31 57 80 57q47 0 80 -57q35 -60 35 -138q0 -74 -35 -133q-31 -57 -80 -57t-82 57q-33 61 -32 133z" />
<glyph unicode="&#xb1;" d="M80 0h711v98h-711v-98zM80 819h305v-481h98v481h308v99h-308v481h-98v-481h-305v-99z" />
<glyph unicode="&#xb2;" horiz-adv-x="522" d="M55 668h398v86h-308v6q0 141 131 297l29 35q14 16 31.5 34.5t38.5 44.5q37 49 53 101q14 45 14 98q0 94 -45 160q-43 68 -149 67q-90 0 -131 -47q-45 -45 -45 -92v-18h88v18q0 25 20 39q20 18 64 19q49 0 75.5 -39t26.5 -93q0 -41 -12 -79q-4 -20 -22.5 -51t-47.5 -72 l-39 -52l-39 -45q-35 -39 -59.5 -78.5t-40.5 -82.5q-31 -90 -31 -148v-108z" />
<glyph unicode="&#xb3;" horiz-adv-x="524" d="M76 793q0 -66 45 -109t121 -43q106 0 161 88q54 90 54 199q0 66 -23 127q-10 29 -34.5 57.5t-63.5 56.5q63 59 78 111q16 55 16 109q0 98 -49 153t-121 55q-49 0 -88 -18q-43 -23 -66 -57q-25 -37 -24 -74v-16h76v18q0 23 20 43q23 20 72 20q51 0 69 -40q23 -41 23 -91 q-4 -45 -18 -84q-14 -41 -43 -69q-27 -27 -76 -27h-45v-88h37q88 0 125 -59q41 -63 40 -140q0 -68 -24.5 -129t-91.5 -61q-55 0 -74 23q-16 23 -16 40v23h-80v-18z" />
<glyph unicode="&#xb4;" horiz-adv-x="770" d="M252 1352h92l174 262h-112z" />
<glyph unicode="&#xb5;" horiz-adv-x="770" d="M-31 -373h121l51 400q43 -57 115 -58q53 0 113 47q61 49 131 166l-25 -182h123l141 1143h-112l-70 -565q-20 -180 -61 -279q-39 -98 -92.5 -151.5t-110.5 -53.5q-47 0 -80 49.5t-33 155.5q0 35 3 86t12 121l79 637h-116z" />
<glyph unicode="&#xb6;" d="M68 1130q0 -168 92 -284q90 -119 235 -119v-1100h103v1825h137v-1825h98v1825h105v100h-385q-147 0 -228 -51q-78 -53 -116 -155q-41 -106 -41 -216z" />
<glyph unicode="&#xb7;" d="M350 455h168v207h-168v-207z" />
<glyph unicode="&#xb8;" horiz-adv-x="770" d="M279 -342v-64q43 -29 100 -28q57 0 86 43q27 41 27 96q0 49 -21 90q-20 43 -88 64l39 108h-68l-55 -155q113 -20 113 -105q0 -29 -19 -53q-14 -27 -39 -27q-39 0 -75 31z" />
<glyph unicode="&#xb9;" horiz-adv-x="524" d="M106 1389l123 71v-760h90v875h-79l-134 -98v-88z" />
<glyph unicode="&#xba;" horiz-adv-x="483" d="M37 1251q0 -174 61.5 -260t143.5 -86q84 0 143 86q61 86 61 260q0 170 -61 260q-59 86 -143 86q-86 0 -144 -86q-61 -90 -61 -260zM119 1251q0 121 33 199q33 76 90 76t90 -76q35 -76 35 -199q0 -117 -35 -196q-35 -74 -90 -74q-57 0 -90 74q-33 82 -33 196z" />
<glyph unicode="&#xbb;" horiz-adv-x="696" d="M57 158h111l186 315v168l-184 320h-111l179 -400zM334 156h108l191 317v168l-187 320h-110l178 -400z" />
<glyph unicode="&#xbc;" horiz-adv-x="1179" d="M76 1358l123 72v-789h90v903h-80l-133 -98v-88zM127 -39h129l719 1606h-113zM643 262h289v-264h88v264h84v80h-84v530h-98l-279 -518v-92zM748 348l180 340v-340h-180z" />
<glyph unicode="&#xbd;" horiz-adv-x="1179" d="M55 1389l123 71v-788h90v903h-80l-133 -98v-88zM109 -8h127l718 1605h-110zM723 0h401v86h-309v8q0 152 129 316l31 34q14 14 30.5 34t36.5 44q41 51 54 99q14 43 14 96q0 88 -45 151q-43 68 -150 68q-86 0 -131 -51q-43 -49 -43 -99v-18h88v20q0 20 20.5 39t63.5 19 q49 0 74 -37q29 -39 29 -88q0 -37 -12 -76q-14 -41 -70 -115l-39 -49l-41 -47q-68 -74 -100 -168q-31 -92 -31 -153v-113z" />
<glyph unicode="&#xbe;" horiz-adv-x="1179" d="M49 793q0 -70 47 -111q45 -43 119 -43q104 0 162 88q53 90 53 201q0 72 -20 127q-20 57 -101 114q63 57 80 111q14 49 14 109q0 96 -47 153q-49 55 -120 55q-51 0 -91 -20q-39 -18 -65 -55q-25 -37 -25 -74v-16h76v18q0 20 23 43q20 20 69 20q51 0 70 -40q20 -39 20 -91 q0 -23 -3 -43t-13 -41q-14 -41 -43 -69q-25 -27 -76 -27h-45v-88h37q86 0 127 -59q39 -59 39 -140q0 -68 -24.5 -129t-90.5 -61q-55 0 -74 23q-18 20 -18 40v23h-80v-18zM154 -51h127l725 1618h-111zM672 262h286v-264h91v264h84v80h-84v530h-101l-276 -518v-92zM776 348 l180 340v-340h-180z" />
<glyph unicode="&#xbf;" horiz-adv-x="741" d="M125 -158q0 -86 33 -157q39 -80 100 -121q66 -45 139 -45q70 0 133 35q61 33 95 94q32 57 32 116v9h-114v-11q0 -70 -35 -108q-35 -35 -92 -35q-72 0 -119 57q-49 55 -49 142q0 51 20 100q18 51 68 135l49 84q37 63 68 166q33 100 32 266v95h-116v-127q0 -145 -29 -215 q-27 -68 -72 -127l-45 -64q-72 -102 -84 -172q-14 -66 -14 -117zM369 987h118v129h-118v-129z" />
<glyph unicode="&#xc0;" horiz-adv-x="948" d="M20 0h121l115 442h426l106 -442h140l-373 1552h-129zM207 1921l215 -172h143l-170 172h-188zM287 559l188 731l174 -731h-362z" />
<glyph unicode="&#xc1;" horiz-adv-x="948" d="M20 0h121l115 442h426l106 -442h140l-373 1552h-129zM209 1749h137l215 172h-182zM287 559l188 731l174 -731h-362z" />
<glyph unicode="&#xc2;" horiz-adv-x="948" d="M20 0h121l115 442h426l106 -442h140l-373 1552h-129zM199 1749h92l90 61l90 -63h92l-141 154h-82zM287 559l188 731l174 -731h-362z" />
<glyph unicode="&#xc3;" horiz-adv-x="948" d="M20 0h121l115 442h426l106 -442h140l-373 1552h-129zM158 1753h71q6 47 25 59q16 14 31 15q10 0 21 -5t28 -14l14 -8l41 -24q55 -31 80 -31q47 0 82 33q39 32 51 114h-74q-8 -39 -22 -53q-10 -10 -31 -10q-16 0 -53 18l-60 31q-45 23 -77 23q-33 0 -55.5 -14.5 t-45.5 -49.5q-10 -18 -17 -38.5t-9 -45.5zM287 559l188 731l174 -731h-362z" />
<glyph unicode="&#xc4;" horiz-adv-x="948" d="M20 0h121l115 442h426l106 -442h140l-373 1552h-129zM287 559l188 731l174 -731h-362zM287 1749h119v131h-119v-131zM561 1749h121v131h-121v-131z" />
<glyph unicode="&#xc5;" horiz-adv-x="948" d="M18 0h121l117 442h426l104 -442h144l-375 1548q25 31 37 68t12 82q0 76 -35 125q-35 53 -82 53t-81 -53q-35 -57 -35 -125q0 -47 14 -82q12 -41 39 -66zM287 559l188 731l174 -731h-362zM430 1712q0 37 16 70q18 31 43 30q23 0 41 -30q17 -29 17 -70q0 -37 -17 -70 q-18 -29 -41 -28q-25 0 -43 28q-16 33 -16 70z" />
<glyph unicode="&#xc6;" horiz-adv-x="1292" d="M0 0h133l182 440h322v-440h592v115h-465v651h377v98h-377v574h430v114h-557zM362 559l273 660v-660h-273z" />
<glyph unicode="&#xc7;" horiz-adv-x="849" d="M63 748q0 -250 37 -399.5t121 -260.5q82 -111 203 -133l-49 -141q119 -20 119 -107q0 -29 -19 -53q-18 -27 -41 -27q-41 0 -74 31v-64q43 -29 101 -28q57 0 88 43q27 41 26 96q0 47 -20 88q-20 43 -88 64l33 98q55 4 97 16.5t71 32.5q57 39 92 117q35 80 35 147v8h-113 v-10q0 -78 -43 -145q-43 -66 -147 -66q-152 0 -226 203q-74 199 -73 518q0 313 73.5 516t225.5 203q59 0 102 -25q39 -25 65 -77q23 -55 23 -109v-8h115v6q0 80 -39 160q-41 82 -111 119q-66 39 -160 38q-135 0 -229 -100t-145 -272q-49 -172 -50 -479z" />
<glyph unicode="&#xc8;" horiz-adv-x="749" d="M94 0h592v115h-463v641h375v108h-375v574h428v114h-557v-1552zM123 1921l215 -172h143l-168 172h-190z" />
<glyph unicode="&#xc9;" horiz-adv-x="749" d="M86 1749h137l215 172h-182zM94 0h592v115h-463v641h375v108h-375v574h428v114h-557v-1552z" />
<glyph unicode="&#xca;" horiz-adv-x="749" d="M94 0h592v115h-463v641h375v108h-375v574h428v114h-557v-1552zM113 1749h94l88 61l90 -63h94l-141 154h-82z" />
<glyph unicode="&#xcb;" horiz-adv-x="749" d="M94 0h592v115h-463v641h375v108h-375v574h428v114h-557v-1552zM186 1749h119v131h-119v-131zM463 1749h119v131h-119v-131z" />
<glyph unicode="&#xcc;" horiz-adv-x="315" d="M-109 1921l215 -172h144l-168 172h-191zM94 0h129v1552h-129v-1552z" />
<glyph unicode="&#xcd;" horiz-adv-x="315" d="M-145 1749h137l215 172h-184zM94 0h129v1552h-129v-1552z" />
<glyph unicode="&#xce;" horiz-adv-x="315" d="M-119 1749h92l90 61l91 -63h94l-144 154h-81zM94 0h129v1552h-129v-1552z" />
<glyph unicode="&#xcf;" horiz-adv-x="315" d="M-45 1749h119v131h-119v-131zM94 0h129v1552h-129v-1552zM231 1749h119v131h-119v-131z" />
<glyph unicode="&#xd0;" horiz-adv-x="911" d="M-25 741h117v-741h291q188 0 281 100q94 100 141 275q47 176 47 407q0 254 -51 426q-53 174 -144 258q-92 86 -292 86h-273v-710h-117v-101zM221 121v620h178v103h-176v602h150q145 0 213 -76q68 -72 102 -231q35 -162 35 -375q0 -221 -39 -363q-37 -147 -106 -213 q-68 -68 -205 -67h-152z" />
<glyph unicode="&#xd1;" horiz-adv-x="923" d="M92 0h121v1098l-2 125l37 -115l452 -1108h129v1552h-118v-1101l2 -121l-41 123l-453 1099h-127v-1552zM145 1753h72q6 47 25 59q16 14 30 15q10 0 21.5 -5t28.5 -14l14 -8l41 -24q55 -31 82 -31q45 0 80 33q37 30 53 114h-76q-8 -39 -22 -53q-10 -10 -31 -10 q-16 0 -53 18l-60 31q-45 23 -78 23t-55 -15q-25 -18 -45 -49q-10 -18 -17.5 -38.5t-9.5 -45.5z" />
<glyph unicode="&#xd2;" horiz-adv-x="958" d="M61 776q0 -397 117 -608q117 -215 301 -215t301 215q117 211 117 608q0 395 -117 608q-115 213 -301 213t-301 -213q-117 -213 -117 -608zM193 776q0 326 75 520q76 197 211 197t213 -197q76 -194 76 -520q0 -330 -76 -520q-78 -197 -213 -197t-211 197q-76 190 -75 520z M211 1921l215 -172h143l-168 172h-190z" />
<glyph unicode="&#xd3;" horiz-adv-x="958" d="M61 776q0 -397 117 -608q117 -215 301 -215t301 215q117 211 117 608q0 395 -117 608q-115 213 -301 213t-301 -213q-117 -213 -117 -608zM174 1749h137l215 172h-182zM193 776q0 326 75 520q76 197 211 197t213 -197q76 -194 76 -520q0 -330 -76 -520 q-78 -197 -213 -197t-211 197q-76 190 -75 520z" />
<glyph unicode="&#xd4;" horiz-adv-x="958" d="M61 776q0 -397 117 -608q117 -215 301 -215t301 215q117 211 117 608q0 395 -117 608q-115 213 -301 213t-301 -213q-117 -213 -117 -608zM193 776q0 326 75 520q76 197 211 197t213 -197q76 -194 76 -520q0 -330 -76 -520q-78 -197 -213 -197t-211 197q-76 190 -75 520z M203 1749h92l90 61l90 -63h92l-141 154h-82z" />
<glyph unicode="&#xd5;" horiz-adv-x="958" d="M61 776q0 -397 117 -608q117 -215 301 -215t301 215q117 211 117 608q0 395 -117 608q-115 213 -301 213t-301 -213q-117 -213 -117 -608zM162 1753h74q2 47 22 59q16 14 31 15q10 0 21.5 -5t27.5 -14l14 -8l41 -24q55 -31 82 -31q43 0 82 33q39 34 51 114h-76 q-4 -23 -10 -35t-10 -18q-10 -10 -33 -10q-14 0 -53 18l-59 31q-41 23 -78 23q-33 0 -53 -15q-27 -16 -48 -49q-20 -35 -26 -84zM193 776q0 326 75 520q76 197 211 197t213 -197q76 -194 76 -520q0 -330 -76 -520q-78 -197 -213 -197t-211 197q-76 190 -75 520z" />
<glyph unicode="&#xd6;" horiz-adv-x="958" d="M61 776q0 -397 117 -608q117 -215 301 -215t301 215q117 211 117 608q0 395 -117 608q-115 213 -301 213t-301 -213q-117 -213 -117 -608zM193 776q0 326 75 520q76 197 211 197t213 -197q76 -194 76 -520q0 -330 -76 -520q-78 -197 -213 -197t-211 197q-76 190 -75 520z M274 1749h119v131h-119v-131zM551 1749h119v131h-119v-131z" />
<glyph unicode="&#xd7;" d="M92 991l285 -452l-283 -443l39 -71l291 446l278 -448l60 88l-273 426l285 458l-74 97l-278 -445l-275 428z" />
<glyph unicode="&#xd8;" horiz-adv-x="958" d="M59 795q0 -156 19 -306q18 -152 82 -290l-90 -215h125l43 98q100 -129 245 -129q125 0 217 96q94 100 146 270q53 179 53 455q0 86 -6 164t-16 149q-20 137 -84 277l102 233h-119l-59 -133q-109 133 -238 133q-190 0 -303 -217q-117 -215 -117 -585zM186 811 q0 305 80 493.5t213 188.5q35 0 82 -20q50 -19 111 -109l-432 -981q-18 68 -29.5 126t-15.5 109q-4 53 -6.5 100.5t-2.5 92.5zM291 217l424 963q49 -178 49 -418q0 -322 -76 -510q-78 -190 -215 -191q-106 0 -182 156z" />
<glyph unicode="&#xd9;" d="M80 526q0 -258 43 -364.5t131 -157.5q84 -51 192 -51q115 0 187 63q74 63 115 174q40 113 40 383v979h-116v-960q0 -141 -7.5 -232.5t-19.5 -134.5q-29 -92 -78 -129q-51 -39 -121 -39q-72 0 -129 39q-55 37 -84 119q-27 74 -26 303v1034h-127v-1026zM168 1921l215 -172 h143l-170 172h-188z" />
<glyph unicode="&#xda;" d="M80 526q0 -258 43 -364.5t131 -157.5q84 -51 192 -51q115 0 187 63q74 63 115 174q40 113 40 383v979h-116v-960q0 -141 -7.5 -232.5t-19.5 -134.5q-29 -92 -78 -129q-51 -39 -121 -39q-72 0 -129 39q-55 37 -84 119q-27 74 -26 303v1034h-127v-1026zM96 1749h137 l216 172h-183z" />
<glyph unicode="&#xdb;" d="M80 526q0 -258 43 -364.5t131 -157.5q84 -51 192 -51q115 0 187 63q74 63 115 174q40 113 40 383v979h-116v-960q0 -141 -7.5 -232.5t-19.5 -134.5q-29 -92 -78 -129q-51 -39 -121 -39q-72 0 -129 39q-55 37 -84 119q-27 74 -26 303v1034h-127v-1026zM158 1749h94l88 61 l90 -63h94l-141 154h-84z" />
<glyph unicode="&#xdc;" d="M80 526q0 -258 43 -364.5t131 -157.5q84 -51 192 -51q115 0 187 63q74 63 115 174q40 113 40 383v979h-116v-960q0 -141 -7.5 -232.5t-19.5 -134.5q-29 -92 -78 -129q-51 -39 -121 -39q-72 0 -129 39q-55 37 -84 119q-27 74 -26 303v1034h-127v-1026zM231 1749h119v131 h-119v-131zM508 1749h119v131h-119v-131z" />
<glyph unicode="&#xdd;" horiz-adv-x="794" d="M16 1552l320 -821v-731h129v731l313 821h-123l-243 -624l-246 624h-150zM158 1749h137l215 172h-184z" />
<glyph unicode="&#xde;" horiz-adv-x="759" d="M94 0h131v354h121q186 0 279 142q94 139 94 346q0 125 -33 215q-31 90 -96 141q-61 47 -221 47h-146v307h-129v-1552zM225 465v678h148q129 0 172 -84q45 -82 45 -217q0 -156 -55 -267q-53 -111 -224 -110h-86z" />
<glyph unicode="&#xdf;" horiz-adv-x="770" d="M96 0h121v1206q0 188 39 245.5t96 57.5q49 0 84 -41q35 -45 35 -96q0 -76 -59 -186l-35 -66l-6 -12t-13 -23q-57 -104 -57 -188q0 -53 18 -104q10 -25 33 -61t64 -83q6 -8 13 -17t13 -20l37 -51q88 -123 111 -182q23 -63 22 -131q0 -86 -32 -127q-31 -45 -72 -45 q-10 0 -26.5 3t-41.5 7q-47 8 -108 47v-117q72 -47 164 -47q115 0 174 90q59 89 59 226q0 82 -26.5 158.5t-86.5 146.5l-49 57l-35 45l-26 33q-41 47 -59.5 87t-18.5 71q0 23 11.5 56.5t37.5 78.5l31 49q18 33 34.5 64.5t28.5 64.5q25 63 25 143q0 137 -72 205 q-70 70 -170 70q-82 0 -139 -49q-55 -51 -88 -146q-31 -92 -31 -270v-1149z" />
<glyph unicode="&#xe0;" horiz-adv-x="720" d="M70 270q0 -139 59 -221q61 -80 145 -80q49 0 103 31q51 29 133 147q0 -61 18 -147h127q-10 53 -15 99t-5 87q-2 41 -2 78v76v444q0 180 -31 248q-27 63 -90 105q-63 39 -141 39t-141.5 -33t-104.5 -103q-39 -66 -39 -127v-14h123v16q0 63 41 115q39 51 112 51 q63 0 106.5 -53t43.5 -182v-158l-63 -18q-209 -61 -293 -152q-86 -86 -86 -248zM195 250q0 96 51 170q27 35 84 70.5t147 78.5l37 17v-127q0 -121 -27 -203q-29 -86 -75 -137q-51 -51 -99 -51q-31 0 -57 24q-33 23 -45 66q-16 45 -16 92zM258 1614l166 -250h92l-143 250 h-115z" />
<glyph unicode="&#xe1;" horiz-adv-x="720" d="M70 270q0 -139 59 -221q61 -80 145 -80q49 0 103 31q51 29 133 147q0 -61 18 -147h127q-10 53 -15 99t-5 87q-2 41 -2 78v76v444q0 180 -31 248q-27 63 -90 105q-63 39 -141 39t-141.5 -33t-104.5 -103q-39 -66 -39 -127v-14h123v16q0 63 41 115q39 51 112 51 q63 0 106.5 -53t43.5 -182v-158l-63 -18q-209 -61 -293 -152q-86 -86 -86 -248zM195 250q0 96 51 170q27 35 84 70.5t147 78.5l37 17v-127q0 -121 -27 -203q-29 -86 -75 -137q-51 -51 -99 -51q-31 0 -57 24q-33 23 -45 66q-16 45 -16 92zM275 1352h92l174 262h-112z" />
<glyph unicode="&#xe2;" horiz-adv-x="720" d="M70 270q0 -139 59 -221q61 -80 145 -80q49 0 103 31q51 29 133 147q0 -61 18 -147h127q-10 53 -15 99t-5 87q-2 41 -2 78v76v444q0 180 -31 248q-27 63 -90 105q-63 39 -141 39t-141.5 -33t-104.5 -103q-39 -66 -39 -127v-14h123v16q0 63 41 115q39 51 112 51 q63 0 106.5 -53t43.5 -182v-158l-63 -18q-209 -61 -293 -152q-86 -86 -86 -248zM195 250q0 96 51 170q27 35 84 70.5t147 78.5l37 17v-127q0 -121 -27 -203q-29 -86 -75 -137q-51 -51 -99 -51q-31 0 -57 24q-33 23 -45 66q-16 45 -16 92zM213 1348h107l55 102l51 -100h109 l-121 264h-78z" />
<glyph unicode="&#xe3;" horiz-adv-x="720" d="M70 270q0 -139 59 -221q61 -80 145 -80q49 0 103 31q51 29 133 147q0 -61 18 -147h127q-10 53 -15 99t-5 87q-2 41 -2 78v76v444q0 180 -31 248q-27 63 -90 105q-63 39 -141 39t-141.5 -33t-104.5 -103q-39 -66 -39 -127v-14h123v16q0 63 41 115q39 51 112 51 q63 0 106.5 -53t43.5 -182v-158l-63 -18q-209 -61 -293 -152q-86 -86 -86 -248zM160 1315h78q0 98 45 98q18 0 53 -27l29 -28q41 -47 86 -47q35 0 61 26q29 29 41 72q15 43 17 135h-78q0 -115 -37 -114q-20 0 -74 40l-26 29q-45 45 -80 45q-51 0 -82 -55q-33 -57 -33 -174z M195 250q0 96 51 170q27 35 84 70.5t147 78.5l37 17v-127q0 -121 -27 -203q-29 -86 -75 -137q-51 -51 -99 -51q-31 0 -57 24q-33 23 -45 66q-16 45 -16 92z" />
<glyph unicode="&#xe4;" horiz-adv-x="720" d="M70 270q0 -139 59 -221q61 -80 145 -80q49 0 103 31q51 29 133 147q0 -61 18 -147h127q-10 53 -15 99t-5 87q-2 41 -2 78v76v444q0 180 -31 248q-27 63 -90 105q-63 39 -141 39t-141.5 -33t-104.5 -103q-39 -66 -39 -127v-14h123v16q0 63 41 115q39 51 112 51 q63 0 106.5 -53t43.5 -182v-158l-63 -18q-209 -61 -293 -152q-86 -86 -86 -248zM168 1317h119v129h-119v-129zM195 250q0 96 51 170q27 35 84 70.5t147 78.5l37 17v-127q0 -121 -27 -203q-29 -86 -75 -137q-51 -51 -99 -51q-31 0 -57 24q-33 23 -45 66q-16 45 -16 92z M445 1317h119v129h-119v-129z" />
<glyph unicode="&#xe5;" horiz-adv-x="720" d="M70 270q0 -139 59 -221q61 -80 145 -80q49 0 103 31q51 29 133 147q0 -61 18 -147h127q-10 53 -15 99t-5 87q-2 41 -2 78v76v444q0 180 -31 248q-27 63 -90 105q-63 39 -141 39t-141.5 -33t-104.5 -103q-39 -66 -39 -127v-14h123v16q0 63 41 115q39 51 112 51 q63 0 106.5 -53t43.5 -182v-158l-63 -18q-209 -61 -293 -152q-86 -86 -86 -248zM195 250q0 96 51 170q27 35 84 70.5t147 78.5l37 17v-127q0 -121 -27 -203q-29 -86 -75 -137q-51 -51 -99 -51q-31 0 -57 24q-33 23 -45 66q-16 45 -16 92zM250 1483q0 -72 33 -123 q35 -53 82 -53t82 53q33 51 33 123t-33 125q-35 53 -82 53t-82 -53q-33 -53 -33 -125zM306 1481q0 43 16 80q18 33 43 32q25 0 43 -32q16 -37 16 -80q0 -45 -16 -78q-18 -35 -43 -35t-43 35q-16 33 -16 78z" />
<glyph unicode="&#xe6;" horiz-adv-x="1208" d="M72 270q0 -135 57 -217q59 -84 158 -84q82 0 157 60q74 61 138 207q45 -164 123 -216q72 -51 151 -51q76 0 135 33q66 35 103 98q39 63 39 125v11h-115v-13q0 -43 -35 -96q-35 -55 -117 -55q-109 0 -170 143q-61 141 -61 315v45h504v60q0 283 -82 412q-84 129 -205 129 q-49 0 -98 -23q-47 -23 -78 -61q-16 -18 -31.5 -48t-32.5 -71q-43 125 -110.5 164t-132.5 39q-76 0 -140 -37q-68 -37 -104 -101q-39 -63 -39 -127v-12h123v16q0 63 41 115q39 51 119 51q68 0 114 -67q45 -66 45 -264v-58l-75 -24q-178 -57 -252 -115q-74 -55 -101 -123 q-29 -63 -28 -160zM203 248q0 66 20 114q23 55 68 95q47 41 194 108l45 23v-60q0 -131 -26 -237q-25 -106 -78 -166q-51 -57 -100 -57q-47 0 -84 43q-39 45 -39 137zM637 674q6 86 23.5 155.5t46.5 124.5q59 109 131 109q49 0 94 -45q43 -41 72 -139q25 -96 24 -177v-28 h-391z" />
<glyph unicode="&#xe7;" horiz-adv-x="710" d="M63 555q0 -270 70 -409.5t207 -174.5l-55 -157q119 -20 118 -107q0 -29 -18 -53q-18 -27 -41 -27q-39 0 -76 31v-64q43 -29 101 -28q61 0 88 45q27 41 26 98q0 49 -20 90q-23 45 -90 64l39 108q72 6 127 41q51 35 82 94q31 61 30 121v11h-110v-13q0 -61 -37 -106 t-111 -45q-88 0 -149.5 116.5t-61.5 380.5t62 381q61 119 149 119q74 0 111 -47t37 -106v-11h112v8q0 66 -35 127q-37 63 -92 99q-59 35 -141 35q-152 0 -235 -158q-86 -158 -87 -463z" />
<glyph unicode="&#xe8;" horiz-adv-x="749" d="M70 563q0 -258 86 -426t245 -168q82 0 142 33q57 31 98 98q37 63 37 127v39h-111v-41q0 -57 -37 -106q-35 -47 -114 -47q-111 -4 -172 141q-63 141 -64 367h508v59q0 201 -37 315q-37 113 -104 166q-66 55 -146 56q-145 0 -239 -175q-92 -172 -92 -438zM184 672 q18 184 76 286q59 102 125 103q55 0 100 -45q41 -41 70 -133q25 -90 25 -187v-24h-396zM276 1614l164 -250h95l-146 250h-113z" />
<glyph unicode="&#xe9;" horiz-adv-x="749" d="M70 563q0 -258 86 -426t245 -168q82 0 142 33q57 31 98 98q37 63 37 127v39h-111v-41q0 -57 -37 -106q-35 -47 -114 -47q-111 -4 -172 141q-63 141 -64 367h508v59q0 201 -37 315q-37 113 -104 166q-66 55 -146 56q-145 0 -239 -175q-92 -172 -92 -438zM184 672 q18 184 76 286q59 102 125 103q55 0 100 -45q41 -41 70 -133q25 -90 25 -187v-24h-396zM293 1352h92l172 262h-113z" />
<glyph unicode="&#xea;" horiz-adv-x="749" d="M70 563q0 -258 86 -426t245 -168q82 0 142 33q57 31 98 98q37 63 37 127v39h-111v-41q0 -57 -37 -106q-35 -47 -114 -47q-111 -4 -172 141q-63 141 -64 367h508v59q0 201 -37 315q-37 113 -104 166q-66 55 -146 56q-145 0 -239 -175q-92 -172 -92 -438zM184 672 q18 184 76 286q59 102 125 103q55 0 100 -45q41 -41 70 -133q25 -90 25 -187v-24h-396zM219 1348h107l55 102l51 -100h109l-121 264h-78z" />
<glyph unicode="&#xeb;" horiz-adv-x="749" d="M70 563q0 -258 86 -426t245 -168q82 0 142 33q57 31 98 98q37 63 37 127v39h-111v-41q0 -57 -37 -106q-35 -47 -114 -47q-111 -4 -172 141q-63 141 -64 367h508v59q0 201 -37 315q-37 113 -104 166q-66 55 -146 56q-145 0 -239 -175q-92 -172 -92 -438zM184 672 q18 184 76 286q59 102 125 103q55 0 100 -45q41 -41 70 -133q25 -90 25 -187v-24h-396zM184 1317h119v129h-119v-129zM461 1317h119v129h-119v-129z" />
<glyph unicode="&#xec;" horiz-adv-x="305" d="M94 0h119v1143h-119v-1143zM96 1614l166 -250h92l-143 250h-115z" />
<glyph unicode="&#xed;" horiz-adv-x="305" d="M94 0h119v1143h-119v-1143zM96 1352h92l174 262h-112z" />
<glyph unicode="&#xee;" horiz-adv-x="305" d="M94 0h119v1143h-119v-1143zM96 1348h107l55 102l51 -100h109l-121 264h-78z" />
<glyph unicode="&#xef;" horiz-adv-x="305" d="M94 0h119v1143h-119v-1143zM96 1317h119v129h-119v-129zM373 1317h119v129h-119v-129z" />
<glyph unicode="&#xf0;" horiz-adv-x="774" d="M51 524q0 -246 92 -399q88 -156 240 -156q158 0 248 176q86 174 86 473q0 80 -6 160t-23 162q-27 164 -80 291q-55 129 -153 252l114 166l-43 75l-129 -184q-63 49 -127 62q-61 12 -139 12h-22v-111h18q106 0 207 -51l-150 -209l49 -86l146 207q78 -100 115 -188 q20 -45 35.5 -93.5t27.5 -101.5q-68 61 -106 74q-41 12 -76 12q-86 0 -162 -68q-76 -66 -119 -188.5t-43 -286.5zM174 514q0 186 59 315q57 123 154 123q94 0 154 -123q59 -129 59 -315q0 -190 -59 -315q-59 -123 -154 -123q-96 0 -154 123q-59 125 -59 315z" />
<glyph unicode="&#xf1;" horiz-adv-x="761" d="M94 0h119v592q0 168 29 264q27 92 73 145q49 53 101 54q39 0 78 -39q35 -39 51 -107q12 -68 12 -229v-680h119v727q0 96 -7 163.5t-22 110.5q-31 88 -82 129q-53 45 -121 46q-47 0 -84 -25q-39 -20 -75 -68q-35 -43 -72 -137v197h-119v-1143zM180 1315h78q0 98 45 98 q18 0 53 -27l29 -28q41 -47 86 -47q35 0 61 26q29 29 41 72q15 43 17 135h-78q0 -115 -37 -114q-20 0 -74 40l-26 29q-45 45 -80 45q-51 0 -82 -55q-33 -57 -33 -174z" />
<glyph unicode="&#xf2;" horiz-adv-x="790" d="M59 571q0 -301 99 -450q98 -152 237 -152q137 0 236 152q98 149 98 450q0 299 -98 453q-98 152 -236 152q-139 0 -237 -152q-98 -154 -99 -453zM180 571q0 223 60 361q57 137 155 137t156 -137q59 -132 59 -361t-59 -360q-57 -137 -156 -137q-98 0 -155 137 q-59 137 -60 360zM289 1614l166 -250h92l-143 250h-115z" />
<glyph unicode="&#xf3;" horiz-adv-x="790" d="M59 571q0 -301 99 -450q98 -152 237 -152q137 0 236 152q98 149 98 450q0 299 -98 453q-98 152 -236 152q-139 0 -237 -152q-98 -154 -99 -453zM180 571q0 223 60 361q57 137 155 137t156 -137q59 -132 59 -361t-59 -360q-57 -137 -156 -137q-98 0 -155 137 q-59 137 -60 360zM305 1352h92l174 262h-112z" />
<glyph unicode="&#xf4;" horiz-adv-x="790" d="M59 571q0 -301 99 -450q98 -152 237 -152q137 0 236 152q98 149 98 450q0 299 -98 453q-98 152 -236 152q-139 0 -237 -152q-98 -154 -99 -453zM180 571q0 223 60 361q57 137 155 137t156 -137q59 -132 59 -361t-59 -360q-57 -137 -156 -137q-98 0 -155 137 q-59 137 -60 360zM233 1348h107l55 102l51 -100h109l-121 264h-78z" />
<glyph unicode="&#xf5;" horiz-adv-x="790" d="M59 571q0 -301 99 -450q98 -152 237 -152q137 0 236 152q98 149 98 450q0 299 -98 453q-98 152 -236 152q-139 0 -237 -152q-98 -154 -99 -453zM180 571q0 223 60 361q57 137 155 137t156 -137q59 -132 59 -361t-59 -360q-57 -137 -156 -137q-98 0 -155 137 q-59 137 -60 360zM188 1315h78q0 98 45 98q18 0 53 -27l29 -28q41 -47 86 -47q35 0 61 26q29 29 41 72q15 43 17 135h-78q0 -115 -37 -114q-20 0 -74 40l-26 29q-45 45 -80 45q-51 0 -82 -55q-33 -57 -33 -174z" />
<glyph unicode="&#xf6;" horiz-adv-x="790" d="M59 571q0 -301 99 -450q98 -152 237 -152q137 0 236 152q98 149 98 450q0 299 -98 453q-98 152 -236 152q-139 0 -237 -152q-98 -154 -99 -453zM180 571q0 223 60 361q57 137 155 137t156 -137q59 -132 59 -361t-59 -360q-57 -137 -156 -137q-98 0 -155 137 q-59 137 -60 360zM196 1317h119v129h-119v-129zM473 1317h119v129h-119v-129z" />
<glyph unicode="&#xf7;" d="M80 510h711v98h-711v-98zM379 168h119v123h-119v-123zM379 819h119v129h-119v-129z" />
<glyph unicode="&#xf8;" horiz-adv-x="790" d="M59 -31h121l39 80q82 -82 184 -82q129 0 228 148q100 145 100 452q0 59 -4 113.5t-12 107.5q-18 102 -68 205l68 148h-111l-26 -60q-86 94 -187 95q-135 0 -233 -154q-98 -152 -99 -447q0 -59 4.5 -112t10.5 -107q14 -102 67 -213zM184 598q0 203 60 338q61 131 159 131 q70 0 125 -86l-311 -668q-33 119 -33 285zM260 150l313 671q33 -118 33 -278q0 -205 -59 -336q-61 -131 -162 -131q-70 0 -125 74z" />
<glyph unicode="&#xf9;" horiz-adv-x="759" d="M84 420q0 -274 67.5 -362.5t165.5 -88.5q47 0 82 21q37 23 72 65q37 43 74 133v-188h121v1143h-117v-594q0 -166 -29 -264q-29 -96 -76 -146q-47 -53 -98 -53q-63 0 -102 55q-41 53 -41 320v682h-119v-723zM254 1614l166 -250h92l-143 250h-115z" />
<glyph unicode="&#xfa;" horiz-adv-x="759" d="M84 420q0 -274 67.5 -362.5t165.5 -88.5q47 0 82 21q37 23 72 65q37 43 74 133v-188h121v1143h-117v-594q0 -166 -29 -264q-29 -96 -76 -146q-47 -53 -98 -53q-63 0 -102 55q-41 53 -41 320v682h-119v-723zM287 1352h92l174 262h-112z" />
<glyph unicode="&#xfb;" horiz-adv-x="759" d="M84 420q0 -274 67.5 -362.5t165.5 -88.5q47 0 82 21q37 23 72 65q37 43 74 133v-188h121v1143h-117v-594q0 -166 -29 -264q-29 -96 -76 -146q-47 -53 -98 -53q-63 0 -102 55q-41 53 -41 320v682h-119v-723zM215 1348h107l55 102l51 -100h109l-121 264h-78z" />
<glyph unicode="&#xfc;" horiz-adv-x="759" d="M84 420q0 -274 67.5 -362.5t165.5 -88.5q47 0 82 21q37 23 72 65q37 43 74 133v-188h121v1143h-117v-594q0 -166 -29 -264q-29 -96 -76 -146q-47 -53 -98 -53q-63 0 -102 55q-41 53 -41 320v682h-119v-723zM180 1317h119v129h-119v-129zM457 1317h119v129h-119v-129z" />
<glyph unicode="&#xfd;" horiz-adv-x="745" d="M23 1143l309 -1104l-13 -49q-20 -86 -37.5 -140.5t-29.5 -78.5q-25 -51 -64 -74q-37 -25 -86 -25h-67v-106h88q72 0 121 33q47 31 86 106q41 78 102 307l295 1131h-115l-223 -850l-237 850h-129zM334 1352h92l174 262h-112z" />
<glyph unicode="&#xfe;" horiz-adv-x="786" d="M86 -434h121v624q37 -102 67 -141q31 -41 72 -59q39 -20 84 -21q139 0 219 168q76 166 76 424q0 170 -37 309q-37 137 -104 209q-70 70 -150 70q-41 0 -86 -23q-43 -23 -74 -63q-37 -43 -69 -139v628h-119v-1986zM203 555q0 70 6 132.5t16 121.5q25 119 74 176 q47 59 107 59q78 0 139 -106q61 -111 61 -387q0 -238 -59 -356q-55 -119 -146 -119q-94 0 -147 133q-51 133 -51 346z" />
<glyph unicode="&#xff;" horiz-adv-x="745" d="M23 1143l309 -1104l-13 -49q-20 -86 -37.5 -140.5t-29.5 -78.5q-25 -51 -64 -74q-37 -25 -86 -25h-67v-106h88q72 0 121 33q47 31 86 106q41 78 102 307l295 1131h-115l-223 -850l-237 850h-129zM188 1317h119v129h-119v-129zM465 1317h119v129h-119v-129z" />
<glyph unicode="&#x152;" horiz-adv-x="1423" d="M59 776q0 -389 115 -606q113 -217 311 -217q76 0 146 41q63 37 133 168v-162h594v115h-463v651h377v98h-377v574h430v114h-557v-170q-66 125 -131 170q-63 45 -150 45q-197 0 -313 -215q-115 -219 -115 -606zM190 776q0 326 76 520q76 197 213 197q135 0 215 -197 q78 -198 78 -520q0 -324 -78 -522q-80 -197 -215 -197q-137 0 -213 197q-76 195 -76 522z" />
<glyph unicode="&#x153;" horiz-adv-x="1298" d="M59 571q0 -301 101 -454q100 -147 233 -148q82 0 160 56q76 57 117 172q92 -227 278 -228q76 0 135 33q61 33 99 98q37 63 37 125v11h-111v-13q0 -43 -37 -98q-35 -53 -115 -53q-111 -4 -172 141q-63 141 -63 367h508v59q0 205 -39 315q-41 117 -105 168q-66 53 -147 54 q-78 0 -143 -52q-66 -49 -123 -172q-55 125 -127 172q-72 51 -152 52q-133 0 -233 -150q-100 -152 -101 -455zM180 571q0 223 60 361q57 137 155 137t156 -137q59 -132 59 -361t-59 -360q-57 -137 -156 -137q-98 0 -155 137q-59 137 -60 360zM727 672q18 178 76 278 q53 98 125 103q51 0 96 -43q47 -43 71.5 -139.5t24.5 -176.5v-22h-393z" />
<glyph unicode="&#x178;" horiz-adv-x="794" d="M16 1552l320 -821v-731h129v731l313 821h-123l-243 -624l-246 624h-150zM186 1749h119v131h-119v-131zM463 1749h119v131h-119v-131z" />
<glyph unicode="&#x2c6;" horiz-adv-x="768" d="M223 1348h107l55 102l51 -100h109l-121 264h-78z" />
<glyph unicode="&#x2dc;" horiz-adv-x="770" d="M180 1315h78q0 98 45 98q18 0 53 -27l29 -28q41 -47 86 -47q35 0 61 26q29 29 41 72q15 43 17 135h-78q0 -115 -37 -114q-20 0 -74 40l-26 29q-45 45 -80 45q-51 0 -82 -55q-33 -57 -33 -174z" />
<glyph unicode="&#x2000;" horiz-adv-x="960" />
<glyph unicode="&#x2001;" horiz-adv-x="1921" />
<glyph unicode="&#x2002;" horiz-adv-x="960" />
<glyph unicode="&#x2003;" horiz-adv-x="1921" />
<glyph unicode="&#x2004;" horiz-adv-x="640" />
<glyph unicode="&#x2005;" horiz-adv-x="480" />
<glyph unicode="&#x2006;" horiz-adv-x="320" />
<glyph unicode="&#x2007;" horiz-adv-x="320" />
<glyph unicode="&#x2008;" horiz-adv-x="240" />
<glyph unicode="&#x2009;" horiz-adv-x="384" />
<glyph unicode="&#x200a;" horiz-adv-x="106" />
<glyph unicode="&#x2010;" horiz-adv-x="493" d="M49 580h395v98h-395v-98z" />
<glyph unicode="&#x2011;" horiz-adv-x="493" d="M49 580h395v98h-395v-98z" />
<glyph unicode="&#x2012;" horiz-adv-x="493" d="M49 580h395v98h-395v-98z" />
<glyph unicode="&#x2013;" horiz-adv-x="669" d="M39 555h592v100h-592v-100z" />
<glyph unicode="&#x2014;" horiz-adv-x="1341" d="M39 555h1264v100h-1264v-100z" />
<glyph unicode="&#x2018;" horiz-adv-x="395" d="M115 1036h166v211h-82q0 66 8 113q6 45 22 96q14 41 45 76v90q-59 -39 -90 -96q-18 -29 -30.5 -62.5t-22.5 -68.5q-16 -76 -16 -207v-152z" />
<glyph unicode="&#x2019;" horiz-adv-x="395" d="M115 1438h84q0 -35 -2 -66t-7 -59q-10 -55 -24 -105q-18 -49 -49 -86v-90q53 35 92 101q35 63 53.5 137t18.5 217v158h-166v-207z" />
<glyph unicode="&#x201a;" horiz-adv-x="395" d="M117 0h80q0 -63 -9 -104q-6 -47 -24 -91q-14 -39 -45 -73v-86q51 35 90 92q16 29 29.5 59.5t23.5 65.5q17 71 17 196v146h-162v-205z" />
<glyph unicode="&#x201c;" horiz-adv-x="641" d="M115 1006h164v211h-82q0 66 8 112q10 51 24 96q16 47 45 76v90q-57 -39 -92 -96q-16 -31 -29.5 -63.5t-21.5 -67.5q-10 -37 -13 -88t-3 -121v-149zM360 1006h166v211h-82q0 63 7 112q10 51 24 96q14 43 47 76v92q-57 -37 -92 -96q-16 -31 -29.5 -63.5t-21.5 -69.5 q-18 -72 -19 -209v-149z" />
<glyph unicode="&#x201d;" horiz-adv-x="641" d="M115 1407h84q0 -35 -2 -65.5t-7 -59.5q-10 -55 -24 -104q-16 -47 -49 -86v-91q55 37 92 101q37 66 53 137q19 74 19 217v158h-166v-207zM365 1001q57 41 92 101q16 33 29.5 66.5t21.5 70.5q18 74 18 217v158h-161v-207h79q0 -35 -2 -64.5t-6 -58.5q-10 -55 -24 -104 q-10 -25 -20.5 -46.5t-26.5 -37.5v-95z" />
<glyph unicode="&#x201e;" horiz-adv-x="641" d="M115 0h82q0 -29 -2 -55.5t-7 -48.5q-8 -45 -24 -91q-10 -23 -20.5 -40t-26.5 -33v-86q57 39 90 92q39 61 53 125q19 67 19 196v146h-164v-205zM362 0h80q0 -63 -8 -104q-10 -49 -24.5 -90.5t-44.5 -71.5v-88q57 39 90 92q18 29 30.5 59.5t22.5 65.5q16 71 16 196v146 h-162v-205z" />
<glyph unicode="&#x2022;" horiz-adv-x="770" d="M170 827q0 -51 27 -104q31 -49 75 -76q45 -29 105 -29q55 0 102 27q49 29 76 78q27 53 27 104t-27 105q-14 25 -33.5 43t-42.5 35q-47 27 -102 26q-59 0 -105 -28q-47 -27 -75 -78q-27 -49 -27 -103z" />
<glyph unicode="&#x2026;" horiz-adv-x="1343" d="M141 0h168v209h-168v-209zM588 0h168v209h-168v-209zM1034 0h168v209h-168v-209z" />
<glyph unicode="&#x202f;" horiz-adv-x="384" />
<glyph unicode="&#x2039;" horiz-adv-x="417" d="M61 481l189 -325h112l-182 401l178 404h-102l-195 -328v-152z" />
<glyph unicode="&#x203a;" horiz-adv-x="417" d="M57 158h111l186 315v168l-184 320h-111l179 -400z" />
<glyph unicode="&#x205f;" horiz-adv-x="480" />
<glyph unicode="&#x2122;" horiz-adv-x="987" d="M55 1485h160v-654h82v654h160v67h-402v-67zM512 836h74v424l82 -312h108l78 312v-429h80v721h-80l-127 -505l-139 505h-76v-716z" />
<glyph unicode="&#xe000;" horiz-adv-x="1146" d="M0 0v1147h1147v-1147h-1147z" />
</font>
</defs>
</svg>
